Coordinates
version=1
nRows=24
nColumns=22
inDegrees=yes

Units are S.I. units (second, meters, Newtons, ...)
If the header above contains a line with 'inDegrees', this indicates whether rotational values are in degrees (yes) or radians (no).

endheader
time	pelvis_tilt	pelvis_list	pelvis_rotation	pelvis_tx	pelvis_ty	pelvis_tz	hip_flexion_r	hip_adduction_r	hip_rotation_r	knee_angle_r	ankle_angle_r	subtalar_angle_r	hip_flexion_l	hip_adduction_l	hip_rotation_l	knee_angle_l	ankle_angle_l	subtalar_angle_l	lumbar_extension	lumbar_bending	lumbar_rotation
      4.09000000	      1.84357498	      5.57115309	    150.67887460	      0.55437557	      0.90172314	     -0.29022305	     20.89878514	      4.31159439	     -1.28774451	    -22.91036980	     -2.87586856	      7.60221449	     -8.32544501	     -1.80102422	      5.45544030	    -40.42225335	     -5.31378421	     -8.79265666	     -5.46234380	      0.87542411	     -1.66028372
      4.10000000	      2.05779205	      5.65686218	    151.40597684	      0.54700808	      0.90291676	     -0.29523120	     20.48633290	      4.35087335	     -1.92453888	    -23.05567536	     -2.32507939	      7.64888628	     -6.60948213	     -2.23162523	      5.01487921	    -43.36068198	     -7.44172408	     -8.40728918	     -5.31929384	      1.15045622	     -1.45631745
      4.11000000	      2.25893030	      5.79020971	    152.14968565	      0.53974590	      0.90410556	     -0.30015592	     19.95683192	      4.44717711	     -2.55375384	    -23.03108205	     -1.76245233	      7.66617384	     -4.81603031	     -2.71758212	      4.61432684	    -46.36050994	     -9.47024592	     -8.06125155	     -5.21989930	      1.44684094	     -1.22075044
      4.12000000	      2.39854882	      6.01570463	    152.91670435	      0.53252684	      0.90536645	     -0.30503442	     19.24527292	      4.61953151	     -3.21089264	    -22.84041923	     -1.25040921	      7.65924003	     -3.04926242	     -3.28333036	      4.24801631	    -49.34808397	    -11.35119989	     -7.74284702	     -5.22542329	      1.78331063	     -0.95121619
      4.13000000	      2.53061581	      6.26891965	    153.67614940	      0.52534299	      0.90653164	     -0.30990763	     18.47522931	      4.84449451	     -3.87076825	    -22.56448715	     -0.66422116	      7.60761047	     -1.24894808	     -3.87858271	      3.92243871	    -52.28725189	    -12.97327618	     -7.39860230	     -5.23577673	      2.12495374	     -0.59879001
      4.14000000	      2.55268911	      6.58306990	    154.44882968	      0.51812739	      0.90783165	     -0.31478721	     17.49137370	      5.11511649	     -4.48851631	    -22.12037073	     -0.14214509	      7.54800055	      0.43104892	     -4.48093425	      3.65416467	    -55.08275268	    -14.40185430	     -7.05300973	     -5.36778555	      2.45098719	     -0.21334388
      4.15000000	      2.52459141	      6.91863743	    155.21311145	      0.51091770	      0.90909202	     -0.31965723	     16.43528909	      5.41557007	     -5.11541272	    -21.62966138	      0.40084631	      7.45475523	      2.06664066	     -5.08881303	      3.39206025	    -57.74130565	    -15.47771122	     -6.65367543	     -5.54140332	      2.76030138	      0.21519013
      4.16000000	      2.41985857	      7.25489372	    155.96595704	      0.50369968	      0.91038201	     -0.32448461	     15.28774985	      5.71713620	     -5.72039905	    -21.08466994	      0.92499009	      7.34361034	      3.61695315	     -5.65252994	      3.14637570	    -60.20811424	    -16.22525725	     -6.21349099	     -5.77427904	      3.02323465	      0.69700778
      4.17000000	      2.24274218	      7.56761712	    156.70086790	      0.49649668	      0.91170481	     -0.32922665	     14.07546955	      5.99741855	     -6.28647046	    -20.50613073	      1.41749813	      7.22820813	      5.08702876	     -6.14573394	      2.89924678	    -62.46141743	    -16.63704836	     -5.74771571	     -6.05828828	      3.22418757	      1.22189599
      4.18000000	      2.01125877	      7.82532728	    157.39692592	      0.48929633	      0.91305304	     -0.33386710	     12.82876063	      6.22867004	     -6.82582037	    -19.89412417	      1.86845818	      7.10387782	      6.48547073	     -6.54571515	      2.61051084	    -64.47134808	    -16.70806415	     -5.24458076	     -6.35668367	      3.34510288	      1.78917190
      4.19000000	      1.72965483	      8.00966293	    158.04147984	      0.48221817	      0.91440144	     -0.33833903	     11.60089560	      6.39386186	     -7.26929542	    -19.32491283	      2.29402717	      7.01392439	      7.83408011	     -6.82702788	      2.27259858	    -66.25022375	    -16.49280568	     -4.79488385	     -6.68745150	      3.37565558	      2.38715962
      4.20000000	      1.41934057	      8.10549734	    158.61954896	      0.47525134	      0.91574385	     -0.34264496	     10.41199602	      6.47988129	     -7.62493436	    -18.79145710	      2.69878365	      6.92859215	      9.14118168	     -6.98571938	      1.86327348	    -67.77618595	    -16.04632246	     -4.34262586	     -7.02007435	      3.31064590	      3.02241813
      4.21000000	      1.12167236	      8.10436956	    159.11549698	      0.46842034	      0.91701314	     -0.34678580	      9.32090627	      6.48329893	     -7.91312003	    -18.32369489	      3.06551742	      6.92281354	     10.44560483	     -7.03673921	      1.36008270	    -69.05772520	    -15.31530438	     -4.09827493	     -7.31288673	      3.16015387	      3.69349318
      4.22000000	      0.83199608	      8.02676383	    159.53245898	      0.46169676	      0.91823902	     -0.35078865	      8.29350412	      6.42122862	     -8.12788177	    -17.88865972	      3.41714364	      6.92452890	     11.72384902	     -7.00966858	      0.76220376	    -70.07904798	    -14.43514236	     -3.89098930	     -7.57719259	      2.94233904	      4.37356610
      4.23000000	      0.56569688	      7.87730190	    159.89041634	      0.45509917	      0.91937627	     -0.35462056	      7.35033655	      6.29631730	     -8.27537109	    -17.50003995	      3.77648851	      6.95182161	     12.99606795	     -6.90214077	      0.11637663	    -70.85259739	    -13.40661640	     -3.77181970	     -7.80495260	      2.66829882	      5.04325397
      4.24000000	      0.30492456	      7.68180377	    160.14183304	      0.44860466	      0.92047524	     -0.35839127	      6.45979991	      6.13023408	     -8.34410019	    -17.15536911	      4.08218046	      6.97652195	     14.20282204	     -6.76949717	     -0.64895125	    -71.35550200	    -12.25388367	     -3.69372034	     -8.02280281	      2.35164880	      5.76411414
      4.25000000	      0.06979113	      7.44369098	    160.35123469	      0.44218775	      0.92147125	     -0.36203895	      5.63467972	      5.92467811	     -8.38679468	    -16.84498139	      4.39875270	      7.01858486	     15.38585628	     -6.60439078	     -1.44480612	    -71.60834936	    -11.01619078	     -3.69459455	     -8.20679371	      2.00607857	      6.44716248
      4.26000000	     -0.14346844	      7.18482101	    160.51629831	      0.43583043	      0.92236725	     -0.36559812	      4.86059828	      5.70075006	     -8.40984877	    -16.56550255	      4.71110432	      7.06476523	     16.52678129	     -6.43810792	     -2.27264207	    -71.61124089	     -9.72052538	     -3.74209345	     -8.36782287	      1.65096298	      7.10630935
      4.27000000	     -0.33841192	      6.91756648	    160.65445062	      0.42950779	      0.92315857	     -0.36907433	      4.12201365	      5.47027677	     -8.42214891	    -16.30529611	      5.01948457	      7.10804846	     17.61772811	     -6.28112115	     -3.10902394	    -71.36728212	     -8.39224540	     -3.82164687	     -8.51164537	      1.29652252	      7.72734281
      4.28000000	     -0.51531396	      6.65502200	    160.77904894	      0.42320862	      0.92383866	     -0.37247980	      3.41360182	      5.24698183	     -8.44142192	    -16.06426645	      5.32780065	      7.14278168	     18.65479228	     -6.14701608	     -3.93619288	    -70.88241941	     -7.05753987	     -3.91221516	     -8.64423144	      0.95335232	      8.30428393
      4.29000000	     -0.67536137	      6.40452112	    160.90171658	      0.41690859	      0.92440152	     -0.37580502	      2.72811192	      5.03793812	     -8.47466816	    -15.83783454	      5.63707950	      7.16407479	     19.63342398	     -6.03877536	     -4.73953848	    -70.16164415	     -5.73417773	     -3.99925508	     -8.76645483	      0.63005848	      8.83109017
      4.30000000	     -0.82086408	      6.17174349	    161.03190938	      0.41059078	      0.92484526	     -0.37905956	      2.05867038	      4.84993912	     -8.52535541	    -15.62486573	      5.94623737	      7.16718953	     20.54864478	     -5.95978420	     -5.51091282	    -69.20981562	     -4.44760107	     -4.07124133	     -8.88123978	      0.33003905	      9.30347027
      4.31000000	     -0.94352881	      5.96454616	    161.16955214	      0.40425834	      0.92515122	     -0.38223305	      1.41811261	      4.69209452	     -8.60598349	    -15.43697878	      6.26434443	      7.15417511	     21.40601706	     -5.91758402	     -6.24880260	    -68.03409198	     -3.20525986	     -4.10597264	     -8.98713491	      0.06456660	      9.73111471
      4.32000000	     -1.05118828	      5.77994856	    161.31458231	      0.39789035	      0.92533730	     -0.38533720	      0.79324601	      4.56170699	     -8.70023382	    -15.26543981	      6.58462948	      7.12109720	     22.19051293	     -5.90254259	     -6.95551450	    -66.63046622	     -2.03665783	     -4.11674496	     -9.08855593	     -0.17288960	     10.11458344
